<svg xmlns:xlink="http://www.w3.org/1999/xlink" width="48" height="48" viewBox="0 0 48 48" fill="none" xmlns="http://www.w3.org/2000/svg">
<g clip-path="url(#clip0)" fill="none">
<path fill-rule="evenodd" clip-rule="evenodd" d="M14 1C11.2386 1 9 3.23858 9 6V23V25V33C9 40.732 15.268 47 23 47H25C32.732 47 39 40.732 39 33V25V23V6C39 3.23858 36.7614 1 34 1C31.2386 1 29 3.23858 29 6V19H19V6C19 3.23858 16.7614 1 14 1Z" fill="#F6EBE7"></path>
<circle cx="19" cy="29" r="1.5" fill="#FFFFFF" stroke="#000000"></circle>
<circle cx="29" cy="29" r="1.5" fill="#FFFFFF" stroke="#000000"></circle>
<rect x="23" y="38" width="1" height="3" fill="black"></rect>
<rect x="20.6465" y="36.3535" width="1" height="3.08573" transform="rotate(-45 20.6465 36.3535)" fill="black"></rect>
<rect x="23.707" y="38.8892" width="1" height="3.64218" transform="rotate(-135 23.707 38.8892)" fill="black"></rect>
<path d="M13.5868 35.9236L3 33.9441" stroke="#000000" fill="none"></path>
<path d="M33.9089 35.9236L44.4957 33.9441" stroke="#000000" fill="none"></path>
<path d="M14.4957 40.5733L5 45.6558" stroke="#000000" fill="none"></path>
<path d="M33 40.5733L42.4957 45.6558" stroke="#000000" fill="none"></path>
<path fill-rule="evenodd" clip-rule="evenodd" d="M19 6C19 3.23858 16.7614 1 14 1C11.2386 1 9 3.23858 9 6L9 15L9 16L9 19.7143L9 32C9 40.2843 15.7157 47 24 47C32.2843 47 39 40.2843 39 32V19.7143L39 19.0001V18.0001L39 16L39 6C39 3.23858 36.7614 1 34 1C31.2386 1 29 3.23858 29 6V18.0001V19.0001H28.5859C29.5122 19.431 30.354 19.9885 31.0832 20.647C31.2102 20.7616 31.3337 20.8794 31.4537 21C31.7662 21.3142 32.0545 21.6484 32.3161 22H31.024H31.0218C30.8393 21.797 30.6457 21.602 30.4419 21.4155C28.8232 19.9348 26.557 19 24 19C21.4429 19 19.1766 19.9348 17.5579 21.4157C17.3542 21.6021 17.1607 21.7971 16.9782 22H16.9761H15.684C15.9455 21.6484 16.2338 21.3142 16.5463 21C16.6664 20.8793 16.7899 20.7615 16.917 20.6469C17.6461 19.9884 18.4879 19.431 19.4141 19.0001H19V18.0001V6ZM40 15V16L40 18.0001V19.0001L40 19.7143L40 32C40 40.8366 32.8366 48 24 48C15.1634 48 8 40.8365 8 32L8 19.7143L8 19.0001V18.0001V6C8 2.6863 10.6863 0 14 0C17.3137 0 20 2.68629 20 6V18.0001V18.7489C21.2249 18.2672 22.5778 18 24 18C25.4222 18 26.7751 18.2672 28 18.7489V18.0001V6C28 2.6863 30.6863 0 34 0C37.3137 0 40 2.68629 40 6L40 15Z" fill="black"></path>
</g>
<defs>
<clipPath id="clip0">
<rect width="48" height="48" fill="white"></rect>
</clipPath>
</defs>
</svg>