<svg xmlns:xlink="http://www.w3.org/1999/xlink" xmlns="http://www.w3.org/2000/svg" width="49" height="48" viewBox="0 0 49 48" fill="none"><path d="M20.9878 14.4C25.0878 20.9 21.6878 25.3 18.3878 27.4C15.0878 29.5 9.68777 30.5 5.68777 24C1.58777 17.5 0.487772 5.8 3.68777 3.8C6.98777 1.8 16.9878 7.9 20.9878 14.4Z" fill="#F6EBE7"></path><path d="M44.1879 37.3C40.1879 45.4 33.5879 44.7 29.5879 42.7C25.5879 40.7 20.9879 35.9 24.9879 27.8C28.9879 19.7 38.9879 11.4 44.0879 11.4C47.4879 14.5 48.1879 29.3 44.1879 37.3Z" fill="#F6EBE7"></path><path d="M20.9877 14.4C16.9877 7.9 6.98767 1.8 3.68767 3.8C0.487673 5.8 1.58767 17.5 5.58767 24C8.88767 29.3 13.1877 29.5 16.3877 28.3C16.9877 31.1 17.1877 34.3 16.9877 37.4L17.9877 37.5C18.1877 34.2 17.9877 30.9 17.3877 27.9C17.7877 27.7 18.0877 27.5 18.4877 27.3C21.6877 25.3 25.0877 20.9 20.9877 14.4ZM17.8877 26.5C17.6877 26.7 17.3877 26.8 17.0877 26.9C16.7877 25.6 16.3877 24.3 15.9877 23.1C15.2877 21.1 14.4877 19.4 13.6877 18.1C12.8877 16.8 11.9877 15.9 11.1877 15.5L10.7877 16.4C11.3877 16.6 12.0877 17.4 12.8877 18.6C13.6877 19.8 14.4877 21.5 15.0877 23.4C15.4877 24.6 15.8877 25.9 16.1877 27.3C15.0877 27.8 13.7877 28 12.3877 27.8C10.4877 27.6 8.28767 26.4 6.38767 23.4C4.58767 20.4 3.28767 16 2.88767 12.1C2.68767 10.2 2.78767 8.4 2.98767 7.1C3.28767 5.7 3.68767 4.9 4.18767 4.7C4.68767 4.4 5.48767 4.3 6.88767 4.7C8.28767 5 9.88767 5.7 11.4877 6.8C14.7877 8.8 18.1877 11.9 20.0877 15C21.9877 18 22.0877 20.5 21.3877 22.3C20.8877 24.1 19.3877 25.6 17.8877 26.5Z" fill="black"></path><path d="M44.0877 11.5C38.9877 11.5 29.0877 19.8 24.9877 27.9C21.5877 34.7 24.2877 39.1 27.5877 41.6C25.2877 43.5 22.7877 45 19.8877 45.6L20.0877 46.6C23.1877 45.9 25.9877 44.3 28.4877 42.2C28.8877 42.4 29.1877 42.6 29.5877 42.8C33.5877 44.8 40.1877 45.5 44.1877 37.4C48.1877 29.3 47.4877 14.5 44.0877 11.5ZM43.2877 36.9C41.3877 40.7 38.9877 42.3 36.6877 42.8C34.2877 43.3 31.8877 42.7 30.0877 41.8C29.7877 41.7 29.5877 41.5 29.2877 41.4C30.3877 40.4 31.2877 39.3 32.1877 38.2C35.1877 34.4 37.2877 30.1 37.9877 27.1L36.9877 26.9C36.2877 29.7 34.2877 33.9 31.2877 37.7C30.3877 38.8 29.3877 39.9 28.2877 40.9C26.9877 40 25.7877 38.8 25.0877 37.2C24.0877 35.1 23.8877 32.2 25.7877 28.3C27.6877 24.4 31.0877 20.4 34.6877 17.4C36.4877 15.9 38.2877 14.6 39.8877 13.8C41.3877 13 42.5877 12.6 43.5877 12.5C44.0877 13.1 44.5877 14.3 45.0877 15.9C45.5877 17.7 45.7877 20 45.8877 22.5C45.9877 27.5 45.1877 33.1 43.2877 36.9Z" fill="black"></path></svg>